<svg xmlns="http://www.w3.org/2000/svg" viewBox="0 0 720 720"><defs><style>.cls-1{fill:#d66027;}.cls-2{fill:#f37421;}.cls-3{fill:#d15827;}.cls-4{fill:#f89a56;}.cls-5{fill:#fff;opacity:0.25;}.cls-6{opacity:0.28;font-size:56px;fill:#3c2415;font-family:Bebas;}.cls-7{letter-spacing:0.02em;}.cls-8{letter-spacing:0.03em;}.cls-9{letter-spacing:0.02em;}.cls-10{letter-spacing:0.02em;}.cls-11{letter-spacing:0.03em;}.cls-12{fill:none;}</style></defs><g id="Layer_2" data-name="Layer 2"><g id="Layer_1-2" data-name="Layer 1"><ellipse class="cls-1" cx="360" cy="360" rx="208" ry="194"/><circle class="cls-2" cx="346" cy="360" r="194"/><path class="cls-3" d="M183.06,318.38h0c1.83-3.13,7.14-4.69,11.87-3.49l308.74,78.86c4.73,1.21,7.09,4.73,5.27,7.86h0Z"/><path class="cls-4" d="M508.94,401.61h0c-1.83,3.14-7.14,4.7-11.87,3.49L188.33,326.25c-4.73-1.21-7.09-4.73-5.27-7.87h0Z"/><path class="cls-5" d="M568,360c0,107.14-93.12,194-208,194-2.42,0-4.84,0-7.24-.12-2.24.08-4.5.12-6.76.12-106.3,0-192.64-85.51-194-191.49,0-.84,0-1.67,0-2.51s0-1.67,0-2.51C153.36,251.5,239.7,166,346,166c2.26,0,4.52,0,6.76.12,2.4-.08,4.82-.12,7.24-.12C474.88,166,568,252.85,568,360Z"/><text class="cls-6" transform="matrix(1.11, 0.29, -0.25, 0.97, 215.1, 310.79)"><tspan class="cls-7">B</tspan><tspan class="cls-8" x="31.74" y="0">O</tspan><tspan class="cls-9" x="62.16" y="0">N</tspan><tspan class="cls-10" x="94.38" y="0">A</tspan><tspan class="cls-11" x="127.87" y="0">MIN</tspan><tspan x="216.36" y="0">E</tspan></text><rect class="cls-12" width="720" height="720"/></g></g></svg>