<svg xmlns="http://www.w3.org/2000/svg" viewBox="0 0 720 720"><defs><style>.cls-1{fill:#531e18;}.cls-2{fill:#e3ada3;}.cls-3{opacity:0.25;font-size:67.71px;fill:#3c2415;font-family:BorisBlackBloxx;}.cls-4{fill:none;}</style></defs><g id="Layer_2" data-name="Layer 2"><g id="Layer_1-2" data-name="Layer 1"><path class="cls-1" d="M568,360c0,107.14-93.12,194-208,194-2.42,0-4.84,0-7.24-.12C242.12,550.35,153.43,466.24,152,362.51c0-.84,0-1.67,0-2.51s0-1.67,0-2.51c1.41-103.74,90.1-187.84,200.74-191.37,2.4-.08,4.82-.12,7.24-.12C474.88,166,568,252.85,568,360Z"/><path class="cls-2" d="M540,360c0,104.88-83.23,190.32-187.24,193.88-2.24.08-4.5.12-6.76.12-106.3,0-192.64-85.51-194-191.49,0-.84,0-1.67,0-2.51s0-1.67,0-2.51C153.36,251.5,239.7,166,346,166c2.26,0,4.52,0,6.76.12C456.77,169.68,540,255.11,540,360Z"/><text class="cls-3" transform="matrix(1.02, 0.26, -0.25, 0.97, 176.48, 340.61)">KREMIL</text><rect class="cls-4" width="720" height="720"/></g></g></svg>